<?xml version="1.0" encoding="utf-8"?>
<!-- Generator: Adobe Illustrator 16.0.0, SVG Export Plug-In . SVG Version: 6.00 Build 0)  -->
<!DOCTYPE svg PUBLIC "-//W3C//DTD SVG 1.1//EN" "http://www.w3.org/Graphics/SVG/1.1/DTD/svg11.dtd">
<svg version="1.1"
	 id="Facebook_w_x2F__circle" xmlns:svg="http://www.w3.org/2000/svg" xmlns:rdf="http://www.w3.org/1999/02/22-rdf-syntax-ns#" xmlns:cc="http://creativecommons.org/ns#" xmlns:dc="http://purl.org/dc/elements/1.1/"
	 xmlns="http://www.w3.org/2000/svg" xmlns:xlink="http://www.w3.org/1999/xlink" x="0px" y="0px" width="250px" height="250px"
	 viewBox="0 0 250 250" enable-background="new 0 0 250 250" xml:space="preserve">
<rect x="79.5" y="50.5" fill="#FAFBFC" width="84" height="150"/>
<path id="path3" fill="#3B5998" d="M125,10C58.725,10,5,63.725,5,130c0,66.275,53.725,120,120,120c66.275,0,120-53.725,120-120
	C245,63.725,191.275,10,125,10z M153.425,92.925h-18.037c-2.138,0-4.513,2.813-4.513,6.55V112.5h22.563l-3.412,18.575h-19.15v55.763
	h-21.288v-55.763H90.275V112.5h19.313v-10.925c0-15.675,10.875-28.413,25.8-28.413h18.037V92.925z"/>
</svg>
