<?xml version="1.0" encoding="utf-8"?>
<!-- Generator: Adobe Illustrator 16.0.0, SVG Export Plug-In . SVG Version: 6.00 Build 0)  -->
<!DOCTYPE svg PUBLIC "-//W3C//DTD SVG 1.1//EN" "http://www.w3.org/Graphics/SVG/1.1/DTD/svg11.dtd">
<svg version="1.1" id="Instagram_w_circle" xmlns="http://www.w3.org/2000/svg" xmlns:xlink="http://www.w3.org/1999/xlink" x="0px"
	 y="0px" width="250px" height="250px" viewBox="0 0 250 250" enable-background="new 0 0 250 250" xml:space="preserve">
<rect x="53" y="53.5" fill="#FFFAFE" width="142" height="144"/>
<title>instagram-with-circle</title>
<path fill="#BC2A8D" d="M175.752,87.604c-2.189-5.678-6.678-10.166-12.355-12.355c-3.871-1.435-7.959-2.193-12.088-2.242
	c-6.865-0.313-8.924-0.379-26.308-0.379c-17.384,0-19.442,0.065-26.308,0.379c-4.128,0.049-8.217,0.807-12.088,2.242
	c-5.678,2.19-10.166,6.678-12.356,12.356c-1.435,3.871-2.193,7.96-2.242,12.088c-0.313,6.866-0.379,8.925-0.379,26.308
	s0.066,19.442,0.379,26.309c0.049,4.128,0.807,8.217,2.242,12.088c2.19,5.678,6.678,10.166,12.356,12.355
	c3.871,1.436,7.96,2.193,12.088,2.242c6.864,0.313,8.923,0.379,26.308,0.379c17.384,0,19.443-0.065,26.308-0.379
	c4.129-0.049,8.217-0.807,12.088-2.242c5.678-2.189,10.166-6.678,12.355-12.355c1.436-3.871,2.193-7.96,2.242-12.088
	c0.313-6.866,0.379-8.924,0.379-26.309c0-17.384-0.064-19.442-0.379-26.308C177.945,95.564,177.188,91.475,175.752,87.604z
	 M125,159.432c-18.464,0-33.432-14.968-33.432-33.432S106.537,92.568,125,92.568c18.464,0,33.431,14.968,33.431,33.432l0,0
	C158.432,144.464,143.465,159.432,125,159.432C125,159.432,125,159.432,125,159.432z M159.754,99.06
	c-4.316,0-7.813-3.498-7.813-7.813c0-4.315,3.496-7.813,7.813-7.813c4.314,0,7.813,3.498,7.813,7.813
	C167.566,95.562,164.068,99.06,159.754,99.06L159.754,99.06z"/>
<circle fill="#BC2A8D" cx="125" cy="126" r="21.701"/>
<path fill="#BC2A8D" d="M125,1C55.965,1,0,56.964,0,126c0,69.035,55.965,125,125,125c69.035,0,125-55.965,125-125l0,0
	C250.002,56.965,194.037,1,125.002,1C125.001,1,125.001,1,125,1z M189.713,152.843c-0.109,5.401-1.131,10.744-3.025,15.803
	c-3.383,8.745-10.295,15.659-19.041,19.04c-5.059,1.895-10.402,2.918-15.803,3.027c-6.945,0.316-9.162,0.392-26.843,0.392
	s-19.898-0.075-26.843-0.392c-5.401-0.109-10.744-1.132-15.803-3.026c-8.745-3.382-15.659-10.295-19.04-19.04
	c-1.895-5.059-2.918-10.402-3.026-15.804c-0.317-6.944-0.392-9.161-0.392-26.843c0-17.681,0.075-19.898,0.392-26.843
	c0.108-5.401,1.131-10.744,3.026-15.803c3.381-8.745,10.294-15.659,19.04-19.04c5.059-1.895,10.402-2.918,15.803-3.026
	c6.944-0.317,9.162-0.392,26.843-0.392s19.898,0.075,26.843,0.392c5.4,0.108,10.744,1.131,15.803,3.026
	c8.746,3.381,15.658,10.294,19.039,19.04c1.896,5.059,2.918,10.402,3.027,15.803c0.316,6.944,0.393,9.162,0.393,26.843
	C190.105,143.682,190.029,145.898,189.713,152.843L189.713,152.843z"/>
</svg>
