<?xml version="1.0" encoding="utf-8"?>
<!-- Generator: Adobe Illustrator 16.0.0, SVG Export Plug-In . SVG Version: 6.00 Build 0)  -->
<!DOCTYPE svg PUBLIC "-//W3C//DTD SVG 1.1//EN" "http://www.w3.org/Graphics/SVG/1.1/DTD/svg11.dtd">
<svg version="1.1"
	 id="Google_x2B__w_x2F__circle" xmlns:svg="http://www.w3.org/2000/svg" xmlns:rdf="http://www.w3.org/1999/02/22-rdf-syntax-ns#" xmlns:cc="http://creativecommons.org/ns#" xmlns:dc="http://purl.org/dc/elements/1.1/"
	 xmlns="http://www.w3.org/2000/svg" xmlns:xlink="http://www.w3.org/1999/xlink" x="0px" y="0px" width="250px" height="250px"
	 viewBox="0 0 250 250" enable-background="new 0 0 250 250" xml:space="preserve">
<rect x="65.5" y="47.5" fill="#F9F9F9" width="143" height="142"/>
<path id="path3" fill="#DD4B39" d="M125,5C58.725,5,5,58.725,5,125c0,66.275,53.725,120,120,120c66.275,0,120-53.725,120-120
	C245,58.725,191.275,5,125,5z M118.087,176.513c-7.538,3.662-15.65,4.05-18.788,4.05c-0.6,0-0.938,0-0.938,0s-0.287,0-0.675,0
	c-4.9,0-29.288-1.125-29.288-23.338c0-21.824,26.563-23.537,34.7-23.537h0.212c-4.7-6.275-3.725-12.6-3.725-12.6
	c-0.413,0.025-1.012,0.05-1.75,0.05c-3.063,0-8.975-0.488-14.05-3.763c-6.225-4-9.375-10.813-9.375-20.237
	c0-26.638,29.087-27.713,29.375-27.738h29.05v0.638c0,3.25-5.838,3.887-9.813,4.425c-1.35,0.2-4.063,0.462-4.825,0.85
	c7.362,3.938,8.55,10.112,8.55,19.313c0,10.475-4.1,16.013-8.45,19.9c-2.7,2.413-4.813,4.3-4.813,6.837
	c0,2.488,2.9,5.025,6.275,7.987c5.512,4.863,13.075,11.476,13.075,22.638C132.838,163.525,127.875,171.775,118.087,176.513z
	 M181.25,125H162.5v18.75H150V125h-18.75v-12.5H150V93.75h12.5v18.75h18.75V125z M102.788,139.375c-0.65,0-1.3,0.025-1.962,0.075
	c-5.55,0.412-10.675,2.487-14.375,5.862c-3.675,3.325-5.55,7.525-5.288,11.763c0.563,8.888,10.1,14.087,21.688,13.263
	c11.4-0.825,19-7.4,18.45-16.288C120.775,145.7,113.513,139.375,102.788,139.375z M113.712,91.063
	c-3.025-10.625-7.9-13.775-15.475-13.775c-0.813,0-1.637,0.125-2.425,0.337c-3.288,0.938-5.9,3.675-7.35,7.75
	c-1.487,4.125-1.575,8.425-0.3,13.325c2.313,8.762,8.538,15.112,14.813,15.112c0.825,0,1.65-0.1,2.425-0.337
	C112.263,111.55,116.563,101.075,113.712,91.063z"/>
</svg>
