<?xml version="1.0" encoding="utf-8"?>
<!-- Generator: Adobe Illustrator 16.0.0, SVG Export Plug-In . SVG Version: 6.00 Build 0)  -->
<!DOCTYPE svg PUBLIC "-//W3C//DTD SVG 1.1//EN" "http://www.w3.org/Graphics/SVG/1.1/DTD/svg11.dtd">
<svg version="1.1"
	 id="Youtube_w_x2F__circle" xmlns:sodipodi="http://sodipodi.sourceforge.net/DTD/sodipodi-0.dtd" xmlns:inkscape="http://www.inkscape.org/namespaces/inkscape" xmlns:svg="http://www.w3.org/2000/svg" xmlns:rdf="http://www.w3.org/1999/02/22-rdf-syntax-ns#" xmlns:cc="http://creativecommons.org/ns#" xmlns:dc="http://purl.org/dc/elements/1.1/" sodipodi:docname="youtube-with-circle.svg" inkscape:version="0.91 r13725"
	 xmlns="http://www.w3.org/2000/svg" xmlns:xlink="http://www.w3.org/1999/xlink" x="0px" y="0px" width="250px" height="250px"
	 viewBox="0 0 250 250" enable-background="new 0 0 250 250" xml:space="preserve">
<sodipodi:namedview  objecttolerance="10" bordercolor="#666666" pagecolor="#ffffff" borderopacity="1" inkscape:cx="0.042372881" inkscape:cy="10" gridtolerance="10" guidetolerance="10" showgrid="false" inkscape:zoom="11.8" id="namedview5" inkscape:pageopacity="0" inkscape:current-layer="Youtube_w_x2F__circle" inkscape:window-height="719" inkscape:window-y="0" inkscape:pageshadow="2" inkscape:window-maximized="1" inkscape:window-width="1366" inkscape:window-x="0">
	</sodipodi:namedview>
<rect x="51" y="64.25" fill="#FFFFFF" stroke="#000000" stroke-miterlimit="10" width="150.5" height="130.25"/>
<path id="path3" fill="#FF0000" d="M145.037,122.913l-28.075-13.1c-2.45-1.138-4.462,0.138-4.462,2.85v24.675
	c0,2.712,2.013,3.987,4.462,2.85l28.063-13.1C147.487,125.938,147.487,124.063,145.037,122.913z M125,5C58.725,5,5,58.725,5,125
	c0,66.275,53.725,120,120,120c66.275,0,120-53.725,120-120C245,58.725,191.275,5,125,5z M125,173.75
	c-61.425,0-62.5-5.537-62.5-48.75c0-43.212,1.075-48.75,62.5-48.75s62.5,5.538,62.5,48.75C187.5,168.213,186.425,173.75,125,173.75z
	"/>
</svg>
